<?xml version="1.0" encoding="UTF-8" standalone="no"?>
<!DOCTYPE svg PUBLIC "-//W3C//DTD SVG 1.1//EN" "http://www.w3.org/Graphics/SVG/1.1/DTD/svg11.dtd">
<svg width="100%" height="100%" viewBox="0 0 758 583" version="1.1" xmlns="http://www.w3.org/2000/svg" xmlns:xlink="http://www.w3.org/1999/xlink" xml:space="preserve" xmlns:serif="http://www.serif.com/" style="fill-rule:evenodd;clip-rule:evenodd;stroke-linejoin:round;stroke-miterlimit:2;">
    <g transform="matrix(1,0,0,1,-567.803,-786.261)">
        <path d="M864.978,956.582C839.34,954.508 819.977,958.593 808.739,961.6C772.583,971.273 747.757,992.168 731.599,1008.98C680.548,1062.1 659.929,1140.83 651.197,1178.61C638.037,1235.56 634.048,1289.44 632.362,1317.3C632.205,1319.91 632.373,1319.96 631.385,1322.38C629.373,1327.31 625.134,1329.06 624.404,1329.37C619.273,1331.48 614.964,1329.68 614.212,1329.37C609.311,1327.31 607.538,1323.11 607.231,1322.38C606.558,1320.79 606.45,1319.01 606.158,1317.31C606.057,1316.72 605.561,1306.01 605.515,1305.03C602.478,1239.4 606.284,1192.33 610.147,1161.72C612.464,1143.36 615.889,1126.23 616.502,1123.16C633.245,1039.44 663.73,989.346 689.218,958.978C702.15,943.571 715.75,932.127 718.261,930.015C761.05,894.01 803.599,884.219 821.242,880.861C852.856,874.843 886.084,875.231 919.342,881.777C927.451,873.464 936.577,865.082 946.771,857.05C987.243,825.158 1025,813.995 1044.45,808.953C1124.46,788.228 1198.74,809.677 1237.98,823.364C1267.82,833.775 1290.94,845.184 1299.7,849.44C1303.04,851.064 1307.44,855.029 1308.06,855.584C1310.37,857.665 1323.54,869.538 1324.83,890.643C1325.04,893.953 1324.93,897.298 1324.49,900.584C1323.8,905.732 1322.45,909.654 1322.18,910.418C1322.18,910.426 1317.84,919.853 1317.84,919.856C1315.79,922.647 1314.01,925.655 1311.69,928.229C1309.44,930.732 1306.91,933.004 1304.2,935.012C1302.94,935.953 1296.2,940.961 1286.39,943.504C1276.58,946.047 1268.27,944.943 1266.7,944.735C1263.37,944.292 1260.06,943.535 1256.88,942.44C1249.16,939.783 1249.32,939.365 1242.64,934.683C1207.92,910.355 1182.93,899.347 1172.79,895.012C1117.96,871.575 1077.24,872.201 1053.03,875.086C1047.93,875.694 1041.49,877.011 1040.49,877.214C1017.39,881.936 997.016,890.574 979.348,901.001C996.218,908.421 1012.73,917.475 1028.5,928.108C1038.86,935.095 1048.65,943.2 1050.34,944.596C1066.41,957.899 1078.15,970.241 1088.11,982.375C1101.32,998.472 1108.14,1010.44 1109.52,1012.77C1121.88,1033.79 1127.02,1049.66 1127.58,1051.29C1136.01,1075.68 1137.27,1093.66 1137.41,1095.24C1138.13,1103.01 1139.02,1115.95 1136.63,1138.47C1134.85,1155.34 1132.06,1167.79 1130.3,1174.91C1130.28,1174.98 1128.9,1180.21 1126.74,1186.78C1091.55,1293.64 993.64,1325.7 915.085,1294.2C882.888,1281.29 864.766,1261.99 859.113,1256.25C832.338,1229.06 824.201,1200.34 821.327,1190.72C817.215,1176.96 815.692,1165.19 814.776,1153.74C813.698,1140.27 814.329,1129.57 815.154,1119.38C816.443,1103.45 819.556,1087.19 820.086,1084.42C820.844,1080.45 823.574,1064.02 830.174,1041.64C833.272,1031.13 842.567,996.904 864.978,956.582ZM907.84,965.12C906.364,967.002 904.991,968.797 903.721,970.488C903.71,970.503 897.74,978.543 890.579,990.112C874.623,1015.89 865.223,1038.77 860.679,1050.56C858.899,1055.18 856.445,1062.77 856.099,1063.84C850.687,1080.57 848.344,1091.64 847.824,1094.09C845.834,1103.49 843.201,1118.31 842.682,1127.76C842.018,1139.82 842.791,1149.02 843.43,1154.54C843.872,1158.36 844.989,1163.6 845.156,1164.38C846.721,1171.71 848.682,1177.92 850.569,1182.94C850.594,1183.01 852.626,1188.27 856.115,1194.75C866.381,1213.8 879.127,1224.92 885.442,1230C885.469,1230.02 887.982,1231.95 891.368,1234.17C936.345,1263.71 999.101,1259.32 1030.62,1215.51C1047.64,1191.86 1049.86,1164.84 1050.85,1157.25C1051.25,1154.23 1053.25,1138.9 1051.96,1119.23C1051.45,1111.46 1049.67,1104.18 1049.36,1102.9C1048.68,1100.11 1047.01,1091.11 1040.96,1077.95C1040.01,1075.88 1036.26,1066.64 1027.81,1054.06C1026.2,1051.67 1018.32,1038.71 1001.06,1021.5C998.603,1019.04 988.883,1009.22 971.811,996.979C946.131,978.571 922.315,969.579 907.84,965.12Z"/>
    </g>
</svg>
