<?xml version="1.0" encoding="UTF-8" standalone="no"?>
<!DOCTYPE svg PUBLIC "-//W3C//DTD SVG 1.1//EN" "http://www.w3.org/Graphics/SVG/1.1/DTD/svg11.dtd">
<svg width="100%" height="100%" viewBox="0 0 3070 429" version="1.1" xmlns="http://www.w3.org/2000/svg" xmlns:xlink="http://www.w3.org/1999/xlink" xml:space="preserve" xmlns:serif="http://www.serif.com/" style="fill-rule:evenodd;clip-rule:evenodd;stroke-linejoin:round;stroke-miterlimit:2;">
    <g transform="matrix(1,0,0,1,-446.843,-66)">
        <g transform="matrix(1.04038,0,0,1.08883,-92.0722,-5.86294)">
            <rect x="518" y="66" width="2950" height="394" style="fill:none;"/>
        </g>
        <g transform="matrix(0.351578,-0.351578,0.351578,0.351578,1241.28,908.383)">
            <path d="M2045.67,259.773L2045.67,191.9C2045.67,185.976 2050.48,181.173 2056.4,181.173L2076.4,181.173C2082.32,181.173 2087.13,185.976 2087.13,191.9L2087.13,259.773L2155,259.773C2160.92,259.773 2165.73,264.576 2165.73,270.5L2165.73,290.5C2165.73,296.424 2160.92,301.227 2155,301.227L2087.13,301.227L2087.13,369.1C2087.13,375.024 2082.32,379.827 2076.4,379.827L2056.4,379.827C2050.48,379.827 2045.67,375.024 2045.67,369.1L2045.67,301.227L1977.8,301.227C1971.88,301.227 1967.07,296.424 1967.07,290.5L1967.07,270.5C1967.07,264.576 1971.88,259.773 1977.8,259.773L2045.67,259.773Z"/>
        </g>
        <g transform="matrix(1,0,0,1,710,-496.5)">
            <g transform="matrix(5.77819,0,0,5.77819,234.299,546.311)">
                <g>
                    <path d="M254.358,56.14L252.791,51.215L241.151,51.215L239.584,56.14L231.75,56.14L242.405,24.802L251.537,24.802L262.192,56.14L254.358,56.14ZM243.3,44.5L250.642,44.5L246.971,32.995L243.3,44.5Z" style="fill-rule:nonzero;"/>
                    <path d="M276.727,24.802C282.905,24.802 287.695,29.593 287.695,35.547C287.695,41.501 282.905,46.291 276.727,46.291L272.027,46.291L272.027,56.14L264.864,56.14L264.864,24.802L276.727,24.802ZM276.727,39.576C278.921,39.576 280.533,37.83 280.533,35.547C280.533,33.264 278.921,31.518 276.727,31.518L272.027,31.518L272.027,39.576L276.727,39.576ZM298.433,49.246L309.624,49.246L309.624,56.14L291.27,56.14L291.27,24.802L298.433,24.802L298.433,49.246ZM325.939,56.766C316.941,56.766 309.644,49.693 309.644,40.471C309.644,31.249 316.941,24.176 325.939,24.176C334.937,24.176 342.234,31.249 342.234,40.471C342.234,49.693 334.937,56.766 325.939,56.766ZM325.939,49.783C331.042,49.783 335.072,46.067 335.072,40.471C335.072,34.875 331.042,31.159 325.939,31.159C320.835,31.159 316.806,34.875 316.806,40.471C316.806,46.067 320.835,49.783 325.939,49.783ZM346.267,24.802L353.43,24.802L353.43,56.14L346.267,56.14L346.267,24.802ZM383.896,24.802C392.536,24.802 399.117,31.607 399.117,40.471C399.117,49.335 392.536,56.14 383.896,56.14L371.361,56.14L371.361,24.802L383.896,24.802ZM383.896,49.246C388.821,49.246 392.223,45.843 392.223,40.471C392.223,35.099 388.821,31.697 383.896,31.697L378.524,31.697L378.524,49.246L383.896,49.246ZM410.307,49.246L422.842,49.246L422.842,56.14L403.145,56.14L403.145,24.802L422.618,24.802L422.618,31.697L410.307,31.697L410.307,36.89L421.499,36.89L421.499,43.694L410.307,43.694L410.307,49.246Z" style="fill-rule:nonzero;"/>
                    <path d="M362.396,56.766C360.068,56.766 358.143,54.841 358.143,52.514C358.143,50.186 360.068,48.261 362.396,48.261C364.724,48.261 366.649,50.186 366.649,52.514C366.649,54.841 364.724,56.766 362.396,56.766Z" style="fill-rule:nonzero;"/>
                </g>
            </g>
            <g transform="matrix(1.48356,0,0,1.48356,-887.248,332.176)">
                <path d="M542.667,364.848C522.062,364.848 507.218,354.595 507.218,333.989C507.218,310.747 525.968,304.106 547.453,302.153C566.3,300.298 572.941,299.419 572.941,292.778L572.941,292.095C572.941,284.477 566.593,279.204 556.046,279.204C545.304,279.204 538.273,284.673 537.589,292.583L510.539,292.583C511.808,271.294 528.605,257.817 556.925,257.817C585.148,257.817 601.359,271.099 601.359,293.169L601.359,363.091L573.234,363.091L573.234,348.54L572.843,348.54C567.374,358.598 558.488,364.848 542.667,364.848ZM550.675,344.829C564.542,344.829 573.136,336.528 573.136,325.395L573.136,315.044C569.816,316.899 561.71,318.266 552.433,319.731C542.57,321.196 534.757,325.005 534.757,333.208C534.757,340.532 541.007,344.829 550.675,344.829ZM659.142,365.434C627.892,365.434 607.579,342.973 607.579,311.626C607.579,280.181 628.575,257.622 658.165,257.622C688.536,257.622 708.946,279.595 708.946,311.04L708.946,318.755L635.606,318.755C636.095,333.989 644.884,343.852 660.02,343.852C671.251,343.852 678.966,338.677 681.602,330.669L707.872,330.669C704.063,351.177 684.141,365.434 659.142,365.434ZM635.802,300.395L681.798,300.395C680.333,287.505 671.739,279.497 658.751,279.497C645.86,279.497 637.364,287.505 635.802,300.395ZM715.176,363.091L715.176,259.966L742.91,259.966L742.91,278.52C749.063,264.556 761.074,257.817 774.16,257.817C788.027,257.817 799.649,265.337 803.945,277.935C809.316,265.337 822.012,257.817 836.953,257.817C856.777,257.817 871.523,271.099 871.523,294.731L871.523,363.091L842.812,363.091L842.812,300.005C842.812,287.602 835.195,281.548 825.332,281.548C814.199,281.548 807.266,289.458 807.266,300.981L807.266,363.091L779.531,363.091L779.531,299.224C779.531,288.481 772.5,281.548 762.442,281.548C752.188,281.548 743.985,288.97 743.985,302.251L743.985,363.091L715.176,363.091ZM877.934,363.091L877.934,259.966L906.742,259.966L906.742,363.091L877.934,363.091ZM892.289,246.978C882.817,246.978 875.883,240.435 875.883,231.646C875.883,222.856 882.817,216.314 892.289,216.314C901.762,216.314 908.695,222.856 908.695,231.646C908.695,240.435 901.762,246.978 892.289,246.978ZM954.067,365.141C931.801,365.141 915.59,353.618 914.418,332.231L926.918,332.231C927.895,346.098 937.367,354.106 953.774,354.106C969.887,354.106 979.945,346.294 979.945,335.063C979.945,326.079 973.109,321.782 962.074,319.243L945.082,315.239C926.43,310.845 916.664,302.056 916.664,287.505C916.664,270.122 931.606,257.915 953.383,257.915C974.672,257.915 989.613,270.317 990.492,290.825L978.188,290.825C977.504,277.446 968.324,268.95 953.383,268.95C938.735,268.95 929.262,276.86 929.262,287.505C929.262,296.489 936,301.274 947.719,304.009L964.809,308.013C983.461,312.505 992.543,320.415 992.543,334.868C992.543,353.52 976.43,365.141 954.067,365.141ZM1043.87,259.966L1043.87,271.001L1022.39,271.001L1022.39,339.946C1022.39,348.637 1025.81,352.055 1034.89,352.055L1043.87,352.055L1043.87,363.091L1033.91,363.091C1017.89,363.091 1009.79,355.669 1009.79,341.118L1009.79,271.001L992.211,271.001L992.211,259.966L1009.79,259.966L1009.79,231.841L1022.39,231.841L1022.39,259.966L1043.87,259.966ZM1088.56,364.946C1067.27,364.946 1050.67,350.786 1050.67,325.102L1050.67,259.966L1063.17,259.966L1063.17,324.321C1063.17,342.778 1073.81,353.227 1090.71,353.227C1107.5,353.227 1120.59,342.876 1120.59,322.563L1120.59,259.966L1133.19,259.966L1133.19,363.091L1120.88,363.091L1120.88,346.587C1113.95,359.087 1102.33,364.946 1088.56,364.946ZM1187.54,364.946C1160.98,364.946 1142.62,343.462 1142.62,311.528C1142.62,279.595 1161.08,258.11 1187.54,258.11C1202.97,258.11 1216.55,266.216 1222.31,279.399L1222.41,279.399L1222.41,217.583L1235,217.583L1235,363.091L1222.7,363.091L1222.7,343.559L1222.5,343.559C1216.16,356.938 1202.97,364.946 1187.54,364.946ZM1189.2,353.423C1209.91,353.423 1223.38,337.016 1223.38,311.528C1223.38,286.04 1209.91,269.536 1189.2,269.536C1169.57,269.536 1155.32,284.673 1155.32,311.528C1155.32,338.384 1169.57,353.423 1189.2,353.423ZM1250.2,363.091L1250.2,259.966L1262.7,259.966L1262.7,363.091L1250.2,363.091ZM1256.45,237.603C1251.47,237.603 1247.37,233.501 1247.37,228.521C1247.37,223.54 1251.47,219.439 1256.45,219.439C1261.43,219.439 1265.53,223.54 1265.53,228.521C1265.53,233.501 1261.43,237.603 1256.45,237.603ZM1319.11,365.141C1291.18,365.141 1272.13,342.876 1272.13,311.626C1272.13,280.278 1291.18,257.915 1319.11,257.915C1347.04,257.915 1366.08,280.278 1366.08,311.626C1366.08,342.876 1347.04,365.141 1319.11,365.141ZM1319.11,353.618C1340.1,353.618 1353.38,336.723 1353.38,311.626C1353.38,286.431 1340,269.438 1319.11,269.438C1298.21,269.438 1284.83,286.431 1284.83,311.626C1284.83,336.821 1298.11,353.618 1319.11,353.618Z"/>
            </g>
        </g>
    </g>
</svg>
